<?xml version="1.0" encoding="UTF-8" standalone="no"?>
<!-- Created with Inkscape (http://www.inkscape.org/) -->

<svg
   xmlns:dc="http://purl.org/dc/elements/1.1/"
   xmlns:cc="http://creativecommons.org/ns#"
   xmlns:rdf="http://www.w3.org/1999/02/22-rdf-syntax-ns#"
   xmlns:svg="http://www.w3.org/2000/svg"
   xmlns="http://www.w3.org/2000/svg"
   xmlns:xlink="http://www.w3.org/1999/xlink"
   xmlns:sodipodi="http://sodipodi.sourceforge.net/DTD/sodipodi-0.dtd"
   xmlns:inkscape="http://www.inkscape.org/namespaces/inkscape"
   width="600"
   height="660.00012"
   id="svg5569"
   sodipodi:version="0.32"
   inkscape:version="0.48.2 r9819"
   version="1.0"
   sodipodi:docname="Escudo de Barcelona Sporting Club de 1925.svg"
   inkscape:export-filename="E:\E MES IMAGES\BLASONS\SVG\SUISSE\SVG\Blason-CH-3D-SUISSE-001.png"
   inkscape:export-xdpi="89.626556"
   inkscape:export-ydpi="89.626556">
  <defs
     id="defs5571">
    <linearGradient
       inkscape:collect="always"
       id="linearGradient8190">
      <stop
         style="stop-color:white;stop-opacity:1;"
         offset="0"
         id="stop8192" />
      <stop
         style="stop-color:white;stop-opacity:0;"
         offset="1"
         id="stop8194" />
    </linearGradient>
    <linearGradient
       inkscape:collect="always"
       id="linearGradient7297">
      <stop
         style="stop-color:black;stop-opacity:1;"
         offset="0"
         id="stop7299" />
      <stop
         style="stop-color:black;stop-opacity:0;"
         offset="1"
         id="stop7301" />
    </linearGradient>
    <radialGradient
       inkscape:collect="always"
       xlink:href="#linearGradient7297"
       id="radialGradient7303"
       cx="608.74615"
       cy="592.01526"
       fx="608.74615"
       fy="592.01526"
       r="299.99999"
       gradientTransform="matrix(1.462813,0.447682,-0.77069,2.518254,-567.3066,-1304.4633)"
       gradientUnits="userSpaceOnUse" />
    <radialGradient
       inkscape:collect="always"
       xlink:href="#linearGradient8190"
       id="radialGradient8196"
       cx="309.4765"
       cy="358.06992"
       fx="309.4765"
       fy="358.06992"
       r="299.99999"
       gradientTransform="matrix(1.601555,-0.00652542,0.00724801,1.778903,-316.8327,-435.1474)"
       gradientUnits="userSpaceOnUse" />
    <radialGradient
       inkscape:collect="always"
       xlink:href="#linearGradient7297"
       id="radialGradient3089"
       gradientUnits="userSpaceOnUse"
       gradientTransform="matrix(1.462813,0.447682,-0.77069,2.518254,180.7637,-1158.034)"
       cx="608.74615"
       cy="592.01526"
       fx="608.74615"
       fy="592.01526"
       r="299.99999" />
  </defs>
  <sodipodi:namedview
     id="base"
     pagecolor="#ffffff"
     bordercolor="#666666"
     borderopacity="1.0"
     inkscape:pageopacity="0.0"
     inkscape:pageshadow="2"
     inkscape:zoom="0.3535534"
     inkscape:cx="52.847928"
     inkscape:cy="230.8107"
     inkscape:document-units="px"
     inkscape:current-layer="layer1"
     inkscape:window-width="1024"
     inkscape:window-height="712"
     inkscape:window-x="-4"
     inkscape:window-y="-4"
     showgrid="true"
     inkscape:window-maximized="1"
     showguides="true"
     inkscape:guide-bbox="true" />
  <metadata
     id="metadata5574">
    <rdf:RDF>
      <cc:Work
         rdf:about="">
        <dc:format>image/svg+xml</dc:format>
        <dc:type
           rdf:resource="http://purl.org/dc/dcmitype/StillImage" />
        <dc:title />
      </cc:Work>
    </rdf:RDF>
  </metadata>
  <g
     inkscape:label="Calque 1"
     inkscape:groupmode="layer"
     id="layer1"
     transform="translate(-128.0703,-146.4293)"
     style="opacity:1">
    <path
       inkscape:connector-curvature="0"
       sodipodi:nodetypes="ccccccc"
       id="path3073"
       d="m 129.60605,223.77345 c 99.57032,35.05727 198.89394,-26.98713 298.46425,-77.34403 99.37504,36.49242 198.77099,126.34261 298.14603,77.34403 l -0.0209,202.38246 C 712.17495,610.01911 602.07224,727.69232 433.57817,805.14036 230.8339,724.93623 149.09632,589.93662 128.0703,427.44498 z"
       style="fill:#ffffff;fill-rule:evenodd;stroke:#000000;stroke-width:3;stroke-linecap:round;stroke-linejoin:round;stroke-miterlimit:4;stroke-opacity:1;stroke-dasharray:none" />
    <path
       style="fill:#ffffff;fill-rule:evenodd;stroke:#000000;stroke-width:3;stroke-linecap:round;stroke-linejoin:round;stroke-miterlimit:4;stroke-opacity:1;stroke-dasharray:none"
       d="m 129.60605,223.77345 c 99.57032,35.05727 198.89394,-26.98713 298.46425,-77.34403 99.37504,36.49242 198.77099,126.34261 298.14603,77.34403 l -0.0209,202.38246 C 712.17495,610.01911 602.07224,727.69232 433.57817,805.14036 230.8339,724.93623 149.09632,589.93662 128.0703,427.44498 z"
       id="path2868"
       sodipodi:nodetypes="ccccccc"
       inkscape:connector-curvature="0" />
    <path
       style="opacity:0.4;fill:url(#radialGradient3089);fill-opacity:1;fill-rule:evenodd;stroke:#000000;stroke-width:3;stroke-linecap:round;stroke-linejoin:round;stroke-miterlimit:4;stroke-opacity:1;stroke-dasharray:none"
       d="m 408.03905,156.7418 c -5.76781,2.98041 -11.54603,5.91751 -17.3125,8.90625 -12.43954,6.44737 -24.84652,12.85608 -37.28125,19.03125 -6.21736,3.08758 -12.43973,6.12265 -18.65625,9.0625 -6.21652,2.93985 -12.44033,5.79225 -18.65625,8.53125 -6.21592,2.739 -12.44069,5.35872 -18.65625,7.84375 -6.21556,2.48503 -12.40956,4.82206 -18.625,7 -6.21544,2.17794 -12.44069,4.21352 -18.65625,6.03125 -6.21556,1.81773 -12.44033,3.43934 -18.65625,4.84375 -6.21592,1.40441 -12.43973,2.59329 -18.65625,3.53125 -6.21652,0.93796 -12.40764,1.61286 -18.625,2.03125 -6.21736,0.41839 -12.4378,0.56055 -18.65625,0.40625 -6.21845,-0.1543 -12.43648,-0.5949 -18.65625,-1.375 -3.10989,-0.39005 -6.23349,-0.88104 -9.34375,-1.4375 -3.11026,-0.55646 -6.23308,-1.17673 -9.34375,-1.90625 -3.11067,-0.72952 -6.20139,-1.55954 -9.3125,-2.46875 -3.02656,-0.8845 -6.06675,-1.84549 -9.09375,-2.90625 l -1.28125,198.6875 c 3.22418,30.62858 8.74933,60.2747 16.9375,88.8125 1.89343,6.59908 4.1286,13.05452 6.3125,19.53125 1.36039,3.98582 2.59495,8.03145 4.0625,11.96875 0.37442,1.01196 0.74303,2.02246 1.125,3.03125 1.47195,3.86311 2.98394,7.71642 4.5625,11.53125 1.8733,4.52711 3.81691,9.01116 5.84375,13.46875 2.02684,4.45759 4.12844,8.86361 6.3125,13.25 2.05339,4.12396 4.17949,8.22165 6.375,12.28125 0.7526,1.38469 1.54248,2.74765 2.3125,4.125 1.32382,2.38107 2.65679,4.76686 4.03125,7.125 2.25535,3.84499 4.5718,7.6834 6.96875,11.46875 37.30979,58.92083 91.92911,110.53829 168.6875,152.84375 0.9918,0.54663 2.03205,1.08149 3.03125,1.625 4.77886,2.55199 9.61147,5.05723 14.5625,7.53125 5.6433,2.81995 11.41081,5.59541 17.28125,8.3125 5.87044,2.71709 11.83624,5.38743 17.9375,8 6.10126,2.61257 12.32049,5.18112 18.65625,7.6875 10.53088,-4.8405 20.84075,-9.8389 30.90625,-15 10.0655,-5.1611 19.88704,-10.50562 29.46875,-16 9.58171,-5.49438 18.92048,-11.15967 28,-17 9.07952,-5.84033 17.90983,-11.83229 26.46875,-18.03125 7.39335,-5.35478 14.50791,-10.90005 21.5,-16.53125 1.26271,-1.01726 2.59546,-2.00642 3.84375,-3.03125 7.84775,-6.44553 15.43763,-13.06066 22.75,-19.875 3.73126,-3.47713 7.41154,-7.01824 11,-10.59375 3.58846,-3.57551 7.08789,-7.19953 10.53125,-10.875 3.44336,-3.67547 6.82905,-7.37924 10.125,-11.15625 3.29595,-3.77701 6.51,-7.61986 9.65625,-11.5 3.14625,-3.88014 6.2245,-7.82765 9.21875,-11.8125 2.99425,-3.98485 5.91006,-8.0026 8.75,-12.09375 2.83994,-4.09115 5.59791,-8.23847 8.28125,-12.4375 2.68334,-4.19903 5.28807,-8.4415 7.8125,-12.75 2.52443,-4.3085 4.94927,-8.6742 7.3125,-13.09375 2.36323,-4.41955 4.64403,-8.90531 6.84375,-13.4375 2.19972,-4.53219 4.34108,-9.13484 6.375,-13.78125 2.03392,-4.64641 3.97794,-9.33153 5.84375,-14.09375 1.86581,-4.76222 3.64835,-9.58914 5.34375,-14.46875 1.6954,-4.87961 3.28981,-9.81391 4.8125,-14.8125 1.5227,-4.99859 2.96481,-10.06835 4.3125,-15.1875 1.34769,-5.11915 2.61087,-10.28996 3.78125,-15.53125 1.17038,-5.24129 2.25923,-10.54123 3.25,-15.90625 0.99077,-5.36502 1.87864,-10.79091 2.6875,-16.28125 0.80886,-5.49034 1.5316,-11.03901 2.15625,-16.65625 0.62465,-5.61724 1.15561,-11.31678 1.59375,-17.0625 l 0.0312,-202.375 c -3.10547,1.53121 -6.20699,2.92162 -9.3125,4.1875 -3.10551,1.26588 -6.2382,2.39396 -9.34375,3.40625 -3.10555,1.01229 -6.20692,1.91707 -9.3125,2.6875 -3.10558,0.77043 -6.20689,1.42845 -9.3125,1.96875 -3.10561,0.5403 -6.20686,0.95935 -9.3125,1.28125 -3.10564,0.3219 -6.20683,0.54101 -9.3125,0.65625 -3.10567,0.11524 -6.20681,0.1422 -9.3125,0.0625 -3.10569,-0.0797 -6.20679,-0.26835 -9.3125,-0.53125 -3.10572,-0.2629 -6.23802,-0.62813 -9.34375,-1.0625 -3.10573,-0.43437 -6.20675,-0.93713 -9.3125,-1.53125 -6.2115,-1.18823 -12.41345,-2.68069 -18.625,-4.4375 -6.21155,-1.75681 -12.41342,-3.76846 -18.625,-6 -6.21158,-2.23154 -12.44466,-4.70009 -18.65625,-7.3125 -6.21159,-2.61241 -12.41342,-5.38182 -18.625,-8.28125 -6.21158,-2.89943 -12.41345,-5.90739 -18.625,-9 -12.42311,-6.18521 -24.85839,-12.6677 -37.28125,-19.0625 -12.42286,-6.3948 -24.82755,-12.70892 -37.25,-18.5625 -6.21123,-2.92679 -12.44516,-5.75554 -18.65625,-8.40625 -5.69861,-2.43199 -11.39527,-4.6574 -17.09375,-6.78125 -7.18679,3.58867 -14.37571,6.75148 -21.5625,9.6875 z"
       id="path5567"
       inkscape:connector-curvature="0" />
    <path
       style="opacity:0.45000000000000001;fill:url(#radialGradient8196);fill-opacity:1;fill-rule:evenodd;stroke:#000000;stroke-width:3;stroke-linecap:round;stroke-linejoin:round;stroke-miterlimit:4;stroke-opacity:1;stroke-dasharray:none"
       d="M 364.84375 628.28125 C 355.58105 633.57168 346.11914 638.73845 336.40625 643.71875 C 326.34075 648.87985 316.03088 653.87825 305.5 658.71875 C 299.16424 656.21237 292.94501 653.64382 286.84375 651.03125 C 280.74249 648.41868 274.77669 645.74834 268.90625 643.03125 C 263.03581 640.31416 257.2683 637.5387 251.625 634.71875 C 245.9817 631.8988 240.45108 629.04614 235.03125 626.125 C 229.61142 623.20386 224.2938 620.23941 219.09375 617.21875 C 213.8937 614.19809 208.8277 611.11852 203.84375 608 C 198.8598 604.88148 193.95903 601.71471 189.1875 598.5 C 184.41597 595.28529 179.75029 592.02798 175.1875 588.71875 C 170.62471 585.40952 166.17023 582.05834 161.8125 578.65625 C 157.45477 575.25416 153.1876 571.80578 149.03125 568.3125 C 144.8749 564.81922 140.83365 561.2703 136.875 557.6875 C 132.91635 554.1047 129.04588 550.48316 125.28125 546.8125 C 121.51662 543.14184 117.85554 539.4131 114.28125 535.65625 C 110.70696 531.8994 107.23138 528.09138 103.84375 524.25 C 100.45612 520.40862 97.173404 516.54924 93.96875 512.625 C 90.764096 508.70076 87.650355 504.72418 84.625 500.71875 C 81.599645 496.71332 78.662236 492.67871 75.8125 488.59375 C 73.130113 484.74868 70.529954 480.8516 68 476.9375 C 115.12551 550.16039 189.86505 612.7124 305.34375 659.5 C 325.82885 649.69729 345.68305 639.30273 364.84375 628.28125 z "
       id="path3069"
       transform="translate(128.0703,146.4293)" />
    <path
       style="opacity:0.45000000000000001;fill:url(#radialGradient8196);fill-opacity:1;fill-rule:evenodd;stroke:#000000;stroke-width:3;stroke-linecap:round;stroke-linejoin:round;stroke-miterlimit:4;stroke-opacity:1;stroke-dasharray:none"
       d="M 279.96875 10.3125 C 274.20094 13.292909 268.42272 16.230009 262.65625 19.21875 C 250.21671 25.666118 237.80973 32.074834 225.375 38.25 C 219.15764 41.337583 212.93527 44.372647 206.71875 47.3125 C 200.50223 50.252353 194.27842 53.104747 188.0625 55.84375 C 181.84658 58.582753 175.62181 61.202467 169.40625 63.6875 C 163.19069 66.172533 156.99669 68.509556 150.78125 70.6875 C 144.56581 72.865444 138.34056 74.901015 132.125 76.71875 C 125.90944 78.536485 119.68467 80.158093 113.46875 81.5625 C 107.25283 82.966907 101.02902 84.155792 94.8125 85.09375 C 88.59598 86.031708 82.404863 86.70661 76.1875 87.125 C 69.970137 87.54339 63.749697 87.685548 57.53125 87.53125 C 51.312803 87.376952 45.094772 86.936355 38.875 86.15625 C 35.765114 85.766197 32.641513 85.275214 29.53125 84.71875 C 26.420987 84.162286 23.298169 83.542016 20.1875 82.8125 C 17.076831 82.082984 13.986106 81.252958 10.875 80.34375 C 7.8484412 79.459251 4.8082502 78.498256 1.78125 77.4375 L 0.5 276.125 C 7.3791164 335.35433 22.048305 391.55903 48.5 443.21875 C 49.179918 444.53429 49.867882 445.84736 50.5625 447.15625 C 51.867439 449.63656 53.201763 452.10377 54.5625 454.5625 C 55.810154 456.80022 57.08255 459.03257 58.375 461.25 C 59.320945 462.88334 60.30957 464.50161 61.28125 466.125 C 63.153761 469.23558 65.036108 472.33705 67 475.40625 C 67.32754 475.92045 67.669744 476.42435 68 476.9375 C 70.529954 480.8516 73.130113 484.74868 75.8125 488.59375 C 78.662236 492.67871 81.599645 496.71332 84.625 500.71875 C 87.650355 504.72418 90.764096 508.70076 93.96875 512.625 C 97.173404 516.54924 100.45612 520.40862 103.84375 524.25 C 107.23138 528.09138 110.70696 531.8994 114.28125 535.65625 C 117.85554 539.4131 121.51662 543.14184 125.28125 546.8125 C 129.04588 550.48316 132.91635 554.1047 136.875 557.6875 C 140.83365 561.2703 144.8749 564.81922 149.03125 568.3125 C 153.1876 571.80578 157.45477 575.25416 161.8125 578.65625 C 166.17023 582.05834 170.62471 585.40952 175.1875 588.71875 C 179.75029 592.02798 184.41597 595.28529 189.1875 598.5 C 193.95903 601.71471 198.8598 604.88148 203.84375 608 C 208.8277 611.11852 213.8937 614.19809 219.09375 617.21875 C 224.2938 620.23941 229.61142 623.20386 235.03125 626.125 C 240.45108 629.04614 245.9817 631.8988 251.625 634.71875 C 257.2683 637.5387 263.03581 640.31416 268.90625 643.03125 C 274.77669 645.74834 280.74249 648.41868 286.84375 651.03125 C 292.94501 653.64382 299.16424 656.21237 305.5 658.71875 C 316.03088 653.87825 326.34075 648.87985 336.40625 643.71875 C 346.11914 638.73845 355.58105 633.57168 364.84375 628.28125 C 366.86205 627.1203 368.81087 625.89505 370.8125 624.71875 C 377.66928 620.70738 384.43675 616.62955 391.03125 612.4375 C 393.90675 610.61427 396.69617 608.70418 399.53125 606.84375 C 406.12674 602.4936 412.6868 598.13837 419 593.59375 C 420.07206 592.82928 421.12221 592.05196 422.1875 591.28125 C 430.07801 585.51512 437.79115 579.61627 445.21875 573.53125 C 453.23867 566.96098 460.97498 560.20426 468.4375 553.25 C 472.16876 549.77287 475.84904 546.23176 479.4375 542.65625 C 483.02596 539.08074 486.52539 535.45672 489.96875 531.78125 C 493.41211 528.10578 496.7978 524.40201 500.09375 520.625 C 503.3897 516.84799 506.60375 513.00514 509.75 509.125 C 512.89625 505.24486 515.9745 501.29735 518.96875 497.3125 C 521.963 493.32765 524.87881 489.3099 527.71875 485.21875 C 530.55869 481.1276 533.31666 476.98028 536 472.78125 C 538.68334 468.58222 541.28807 464.33975 543.8125 460.03125 C 546.33693 455.72275 548.76177 451.35705 551.125 446.9375 C 553.48823 442.51795 555.76903 438.03219 557.96875 433.5 C 560.16847 428.96781 562.30983 424.36516 564.34375 419.71875 C 566.37767 415.07234 568.32169 410.38722 570.1875 405.625 C 572.05331 400.86278 573.83585 396.03586 575.53125 391.15625 C 577.22665 386.27664 578.82105 381.34234 580.34375 376.34375 C 581.86645 371.34516 583.30856 366.2754 584.65625 361.15625 C 586.00394 356.0371 587.26712 350.86629 588.4375 345.625 C 589.60788 340.38371 590.69673 335.08377 591.6875 329.71875 C 592.67827 324.35373 593.56614 318.92784 594.375 313.4375 C 595.18386 307.94716 595.9066 302.39849 596.53125 296.78125 C 597.1559 291.16401 597.68686 285.46447 598.125 279.71875 L 598.15625 77.34375 C 595.05078 78.874956 591.94926 80.265368 588.84375 81.53125 C 585.73824 82.797132 582.60555 83.92521 579.5 84.9375 C 576.39445 85.94979 573.29308 86.85457 570.1875 87.625 C 567.08192 88.39543 563.98061 89.05345 560.875 89.59375 C 557.76939 90.13405 554.66814 90.553097 551.5625 90.875 C 548.45686 91.196903 545.35567 91.416014 542.25 91.53125 C 539.14433 91.646486 536.04319 91.673449 532.9375 91.59375 C 529.83181 91.514051 526.73072 91.325403 523.625 91.0625 C 520.51928 90.799597 517.38698 90.434375 514.28125 90 C 511.17552 89.565625 508.0745 89.062867 504.96875 88.46875 C 498.75725 87.280517 492.5553 85.78806 486.34375 84.03125 C 480.1322 82.27444 473.93033 80.262785 467.71875 78.03125 C 461.50717 75.799715 455.27409 73.33116 449.0625 70.71875 C 442.85091 68.10634 436.64908 65.336933 430.4375 62.4375 C 424.22592 59.538067 418.02405 56.530106 411.8125 53.4375 C 399.38939 47.252287 386.95411 40.7698 374.53125 34.375 C 362.10839 27.9802 349.7037 21.666079 337.28125 15.8125 C 331.07002 12.88571 324.83609 10.056958 318.625 7.40625 C 312.92639 4.9742556 307.22973 2.7488504 301.53125 0.625 C 294.34447 4.2136717 287.15553 7.3764802 279.96875 10.3125 z "
       id="path1948"
       transform="translate(128.0703,146.4293)" />
    <path
       style="fill:#ffd638;fill-opacity:1;stroke:none"
       d="M 387.5 41 C 383.17934 38.771651 378.85187 36.599085 374.53125 34.375 C 364.54874 29.236396 354.57601 24.305501 344.59375 19.46875 L 344.59375 328.75 L 387.5 328.75 L 387.5 41 z "
       id="path3822"
       transform="translate(128.0703,146.4293)" />
    <path
       style="fill:#ff2a2a;fill-opacity:1;stroke:none"
       d="M 430.40625 62.4375 C 424.20312 59.541684 418.0156 56.5259 411.8125 53.4375 C 403.7101 49.403479 395.60231 45.178711 387.5 41 L 387.5 328.75 L 430.40625 328.75 L 430.40625 62.4375 z "
       id="path3827"
       transform="translate(128.0703,146.4293)" />
    <path
       style="fill:#ffd638;fill-opacity:1;stroke:none"
       d="M 473.3125 79.84375 C 471.44592 79.213078 469.58533 78.701826 467.71875 78.03125 C 461.50717 75.799715 455.27409 73.33116 449.0625 70.71875 C 442.85091 68.10634 436.64908 65.336933 430.4375 62.4375 C 430.42905 62.433556 430.4147 62.441444 430.40625 62.4375 L 430.40625 328.75 L 473.3125 328.75 L 473.3125 79.84375 z "
       id="path3846"
       transform="translate(128.0703,146.4293)" />
    <path
       style="fill:#ff2a2a;fill-opacity:1;stroke:none"
       d="M 516.25 90.21875 C 515.59581 90.134656 514.93544 90.091497 514.28125 90 C 511.17552 89.565625 508.0745 89.062867 504.96875 88.46875 C 498.75725 87.280517 492.5553 85.78806 486.34375 84.03125 C 481.99877 82.802362 477.6575 81.311821 473.3125 79.84375 L 473.3125 328.75 L 516.25 328.75 L 516.25 90.21875 z "
       id="path3851"
       transform="translate(128.0703,146.4293)" />
    <path
       style="fill:#ffd638;fill-opacity:1;stroke:none"
       d="M 559.15625 89.84375 C 556.62443 90.250608 554.09434 90.612572 551.5625 90.875 C 548.45686 91.196903 545.35567 91.416014 542.25 91.53125 C 539.14433 91.646486 536.04319 91.673449 532.9375 91.59375 C 529.83181 91.514051 526.73072 91.325403 523.625 91.0625 C 521.17348 90.854975 518.70154 90.533887 516.25 90.21875 L 516.25 328.75 L 559.15625 328.75 L 559.15625 89.84375 z "
       id="path3856"
       transform="translate(128.0703,146.4293)" />
    <path
       style="fill:#ff2a2a;fill-opacity:1;stroke:none"
       d="M 591.84375 328.75 C 592.76549 323.69704 593.61424 318.60136 594.375 313.4375 C 595.18386 307.94716 595.9066 302.39849 596.53125 296.78125 C 597.1559 291.16401 597.68686 285.46447 598.125 279.71875 L 598.125 77.34375 C 595.0282 78.869927 591.94059 80.268901 588.84375 81.53125 C 585.73824 82.797132 582.60555 83.92521 579.5 84.9375 C 576.39445 85.94979 573.29308 86.85457 570.1875 87.625 C 567.08192 88.39543 563.98061 89.05345 560.875 89.59375 C 560.30121 89.693576 559.73004 89.751543 559.15625 89.84375 L 559.15625 328.75 L 591.84375 328.75 z "
       id="path3861"
       transform="translate(128.0703,146.4293)" />
    <path
       style="fill:#ff2a2a;fill-opacity:1;stroke:none"
       d="M 344.59375 19.46875 C 342.15346 18.286346 339.72152 16.962378 337.28125 15.8125 C 331.07002 12.88571 324.83609 10.056958 318.625 7.40625 C 312.97496 4.9949839 307.33741 2.764906 301.6875 0.65625 L 301.6875 328.75 L 344.59375 328.75 L 344.59375 19.46875 z "
       id="path3817"
       transform="translate(128.0703,146.4293)" />
    <path
       style="fill:#ff2a2a;fill-opacity:1;stroke:none"
       d="M 8.375 328.875 C 9.2157181 332.77449 9.9194472 336.73211 10.84375 340.59375 C 13.165376 350.29325 15.755462 359.89236 18.625 369.34375 C 21.494538 378.79514 24.64686 388.12255 28.09375 397.3125 C 29.817195 401.90747 31.626697 406.47289 33.5 411 C 35.373303 415.52711 37.316908 420.01116 39.34375 424.46875 C 41.040516 428.20041 42.818263 431.88064 44.625 435.5625 L 44.625 328.875 L 8.375 328.875 z "
       id="rect3798"
       transform="translate(128.0703,146.4293)" />
    <path
       style="fill:#ffd638;fill-opacity:1;stroke:none"
       d="M 44.625 435.5625 C 44.976469 436.27874 45.30057 437.00441 45.65625 437.71875 C 47.84031 442.10514 50.092541 446.46772 52.4375 450.78125 C 54.782459 455.09478 57.209212 459.38599 59.71875 463.625 C 62.228288 467.86401 64.822203 472.05594 67.5 476.21875 C 70.177797 480.38156 72.962764 484.50879 75.8125 488.59375 C 78.662236 492.67871 81.599645 496.71332 84.625 500.71875 C 85.514748 501.89674 86.469856 503.04774 87.375 504.21875 L 87.375 328.875 L 44.625 328.875 L 44.625 435.5625 z "
       id="rect3800"
       transform="translate(128.0703,146.4293)" />
    <path
       style="fill:#ff2a2a;fill-opacity:1;stroke:none"
       d="M 87.375 504.21875 C 89.547561 507.02946 91.706575 509.85487 93.96875 512.625 C 97.173404 516.54924 100.45612 520.40862 103.84375 524.25 C 107.23138 528.09138 110.70696 531.8994 114.28125 535.65625 C 117.85554 539.4131 121.51662 543.14184 125.28125 546.8125 C 126.8521 548.34414 128.52056 549.82733 130.125 551.34375 L 130.125 328.875 L 87.375 328.875 L 87.375 504.21875 z "
       id="rect3802"
       transform="translate(128.0703,146.4293)" />
    <path
       style="fill:#ffd638;fill-opacity:1;stroke:none"
       d="M 130.125 551.34375 C 132.3657 553.46153 134.56815 555.59967 136.875 557.6875 C 140.83365 561.2703 144.8749 564.81922 149.03125 568.3125 C 153.1876 571.80578 157.45477 575.25416 161.8125 578.65625 C 165.42659 581.47777 169.15134 584.24225 172.90625 587 L 172.90625 328.875 L 130.125 328.875 L 130.125 551.34375 z "
       id="rect3804"
       transform="translate(128.0703,146.4293)" />
    <path
       style="fill:#ff2a2a;fill-opacity:1;stroke:none"
       d="M 172.90625 587 C 173.67887 587.56744 174.40886 588.15403 175.1875 588.71875 C 179.75029 592.02798 184.41597 595.28529 189.1875 598.5 C 193.95903 601.71471 198.8598 604.88148 203.84375 608 C 207.70651 610.41698 211.66393 612.79794 215.65625 615.15625 L 215.65625 328.875 L 172.90625 328.875 L 172.90625 587 z "
       id="rect3806"
       transform="translate(128.0703,146.4293)" />
    <path
       style="fill:#ffd638;fill-opacity:1;stroke:none"
       d="M 215.65625 615.15625 C 216.81505 615.84076 217.92395 616.53922 219.09375 617.21875 C 224.2938 620.23941 229.61142 623.20386 235.03125 626.125 C 240.45108 629.04614 245.9817 631.8988 251.625 634.71875 C 253.83794 635.82456 256.15855 636.87868 258.40625 637.96875 L 258.40625 328.875 L 215.65625 328.875 L 215.65625 615.15625 z "
       id="rect3808"
       transform="translate(128.0703,146.4293)" />
    <path
       style="fill:#ff2a2a;fill-opacity:1;stroke:none"
       d="M 258.40625 637.96875 C 261.89048 639.6585 265.33783 641.37963 268.90625 643.03125 C 274.77669 645.74834 280.74249 648.41868 286.84375 651.03125 C 291.52544 653.03596 296.33674 654.9952 301.15625 656.9375 L 301.15625 328.875 L 258.40625 328.875 L 258.40625 637.96875 z "
       id="rect3810"
       transform="translate(128.0703,146.4293)" />
    <path
       style="fill:#ff2a2a;fill-opacity:1;stroke:none"
       d="M 172.90625 62.21875 C 171.7405 62.694514 170.57199 63.221428 169.40625 63.6875 C 163.19069 66.172533 156.99669 68.509556 150.78125 70.6875 C 144.56581 72.865444 138.34056 74.901015 132.125 76.71875 C 131.4577 76.9139 130.7923 77.059341 130.125 77.25 L 130.125 328.875 L 172.90625 328.875 L 172.90625 62.21875 z "
       id="path3928"
       transform="translate(128.0703,146.4293)" />
    <path
       style="fill:#ff2a2a;fill-opacity:1;stroke:none"
       d="m 128.6953,329.4918 -0.1875,42.75 315.5,0 0,-42.75 -315.3125,0 z"
       id="rect3900"
       inkscape:connector-curvature="0" />
    <path
       style="fill:#ff2a2a;fill-opacity:1;stroke:none"
       d="M 430.40625 584.9375 C 435.37423 581.15773 440.4432 577.44359 445.21875 573.53125 C 453.23867 566.96098 460.97498 560.20426 468.4375 553.25 C 470.04668 551.75042 471.60476 550.2053 473.1875 548.6875 L 473.1875 328.75 L 430.40625 328.75 L 430.40625 584.9375 z "
       id="rect3912"
       transform="translate(128.0703,146.4293)" />
    <path
       style="fill:none;stroke:#000000;stroke-width:3;stroke-linecap:round;stroke-linejoin:round;stroke-miterlimit:4;stroke-opacity:1;stroke-dasharray:none"
       d="m 428.0703,146.4293 c -12.44629,6.29461 -24.90421,12.77138 -37.34375,19.21875 -12.43954,6.44737 -24.84652,12.85608 -37.28125,19.03125 -6.21736,3.08758 -12.43973,6.12265 -18.65625,9.0625 -6.21652,2.93985 -12.44033,5.79225 -18.65625,8.53125 -6.21592,2.739 -12.44069,5.35872 -18.65625,7.84375 -6.21556,2.48503 -12.40956,4.82206 -18.625,7 -6.21544,2.17794 -12.44069,4.21352 -18.65625,6.03125 -6.21556,1.81773 -12.44033,3.43934 -18.65625,4.84375 -6.21592,1.40441 -12.43973,2.59329 -18.65625,3.53125 -6.21652,0.93796 -12.40764,1.61286 -18.625,2.03125 -6.21736,0.41839 -12.4378,0.56055 -18.65625,0.40625 -6.21845,-0.1543 -12.43648,-0.5949 -18.65625,-1.375 -3.10989,-0.39005 -6.23349,-0.88104 -9.34375,-1.4375 -3.11026,-0.55646 -6.23308,-1.17673 -9.34375,-1.90625 -3.11067,-0.72952 -6.20139,-1.55954 -9.3125,-2.46875 -3.11111,-0.90921 -6.23218,-1.90446 -9.34375,-3 l -1.53125,203.6875 c 21.02602,162.49164 102.75573,297.48337 305.5,377.6875 168.49407,-77.44804 278.60454,-195.1368 292.625,-379 l 0,-202.375 c -3.0968,1.52618 -6.18441,2.92515 -9.28125,4.1875 -3.10551,1.26588 -6.2382,2.39396 -9.34375,3.40625 -3.10555,1.01229 -6.20692,1.91707 -9.3125,2.6875 -3.10558,0.77043 -6.20689,1.42845 -9.3125,1.96875 -3.10561,0.5403 -6.20686,0.95935 -9.3125,1.28125 -3.10564,0.3219 -6.20683,0.54101 -9.3125,0.65625 -3.10567,0.11524 -6.20681,0.1422 -9.3125,0.0625 -3.10569,-0.0797 -6.20679,-0.26835 -9.3125,-0.53125 -3.10572,-0.2629 -6.23802,-0.62813 -9.34375,-1.0625 -3.10573,-0.43437 -6.20675,-0.93713 -9.3125,-1.53125 -6.2115,-1.18823 -12.41345,-2.68069 -18.625,-4.4375 -6.21155,-1.75681 -12.41342,-3.76846 -18.625,-6 -6.21158,-2.23154 -12.44466,-4.70009 -18.65625,-7.3125 -6.21159,-2.61241 -12.41342,-5.38182 -18.625,-8.28125 -6.21158,-2.89943 -12.41345,-5.90739 -18.625,-9 -12.42311,-6.18521 -24.85839,-12.6677 -37.28125,-19.0625 -12.42286,-6.3948 -24.82755,-12.70892 -37.25,-18.5625 -6.21123,-2.92679 -12.44516,-5.75554 -18.65625,-8.40625 -6.21109,-2.65071 -12.41406,-5.12547 -18.625,-7.40625 z"
       id="path3078"
       inkscape:connector-curvature="0" />
    <path
       style="fill:#ff2a2a;fill-opacity:1;stroke:none"
       d="M 534.8125 474.5625 C 535.2002 473.96309 535.61554 473.38288 536 472.78125 C 538.68346 468.58198 541.28795 464.30873 543.8125 460 C 546.33705 455.69127 548.76166 451.35727 551.125 446.9375 C 553.48834 442.51773 555.76892 438.0324 557.96875 433.5 C 558.24226 432.93647 558.47903 432.34654 558.75 431.78125 L 287.34375 431.78125 L 287.34375 474.5625 L 534.8125 474.5625 z "
       id="rect3914"
       transform="translate(128.0703,146.4293)" />
  </g>
</svg>
